<svg width="479" height="74" viewBox="0 0 479 74" fill="none" xmlns="http://www.w3.org/2000/svg">
<path fill-rule="evenodd" clip-rule="evenodd" d="M36.9357 0C16.5367 0 0 16.5367 0 36.9357C0 57.3348 16.5367 73.8715 36.9357 73.8715H107.411C127.81 73.8715 144.347 57.3348 144.347 36.9357C144.347 16.5367 127.81 0 107.411 0H36.9357ZM87.457 22.9254H60.2858V50.0965H87.457V22.9254ZM115.477 50.0969L88.3058 50.0969L115.477 22.9258V50.0969ZM45.0021 50.0965C52.5052 50.0965 58.5876 44.0141 58.5876 36.511C58.5876 29.0079 52.5052 22.9254 45.0021 22.9254C37.499 22.9254 31.4165 29.0079 31.4165 36.511C31.4165 44.0141 37.499 50.0965 45.0021 50.0965Z" fill="black"/>
<path d="M211.986 35.1826C211.986 32.944 211.624 30.8155 210.9 28.7971C210.176 26.7421 209.126 24.9439 207.75 23.4025C206.411 21.8612 204.764 20.6318 202.809 19.7144C200.854 18.7969 198.646 18.3382 196.184 18.3382C193.723 18.3382 191.514 18.7969 189.56 19.7144C187.605 20.6318 185.94 21.8612 184.564 23.4025C183.225 24.9439 182.193 26.7421 181.469 28.7971C180.745 30.8155 180.383 32.944 180.383 35.1826C180.383 37.4212 180.745 39.568 181.469 41.6231C182.193 43.6415 183.225 45.4213 184.564 46.9626C185.94 48.504 187.605 49.7333 189.56 50.6508C191.514 51.5682 193.723 52.027 196.184 52.027C198.646 52.027 200.854 51.5682 202.809 50.6508C204.764 49.7333 206.411 48.504 207.75 46.9626C209.126 45.4213 210.176 43.6415 210.9 41.6231C211.624 39.568 211.986 37.4212 211.986 35.1826ZM216.221 35.1826C216.221 38.1551 215.714 40.8891 214.701 43.3846C213.687 45.88 212.275 48.0452 210.465 49.8801C208.691 51.6783 206.574 53.0912 204.112 54.1187C201.687 55.1463 199.044 55.6601 196.184 55.6601C193.324 55.6601 190.664 55.1463 188.202 54.1187C185.777 53.0912 183.659 51.6783 181.849 49.8801C180.075 48.0452 178.681 45.88 177.668 43.3846C176.654 40.8891 176.147 38.1551 176.147 35.1826C176.147 32.2101 176.654 29.4761 177.668 26.9806C178.681 24.4851 180.075 22.3383 181.849 20.5401C183.659 18.7052 185.777 17.274 188.202 16.2464C190.664 15.2189 193.324 14.7051 196.184 14.7051C199.044 14.7051 201.687 15.2189 204.112 16.2464C206.574 17.274 208.691 18.7052 210.465 20.5401C212.275 22.3383 213.687 24.4851 214.701 26.9806C215.714 29.4761 216.221 32.2101 216.221 35.1826Z" fill="black"/>
<path d="M242.121 41.7882C242.121 40.357 241.886 39.0175 241.415 37.7698C240.981 36.5221 240.347 35.4395 239.515 34.522C238.682 33.6046 237.669 32.889 236.474 32.3752C235.316 31.8247 233.994 31.5495 232.51 31.5495C231.026 31.5495 229.668 31.8247 228.438 32.3752C227.207 32.889 226.139 33.6046 225.234 34.522C224.329 35.4395 223.623 36.5221 223.116 37.7698C222.609 39.0175 222.356 40.357 222.356 41.7882C222.356 43.2194 222.609 44.5589 223.116 45.8067C223.623 47.0544 224.329 48.137 225.234 49.0544C226.139 49.9719 227.207 50.7058 228.438 51.2563C229.668 51.7701 231.026 52.027 232.51 52.027C233.994 52.027 235.316 51.7701 236.474 51.2563C237.669 50.7058 238.682 49.9719 239.515 49.0544C240.347 48.137 240.981 47.0544 241.415 45.8067C241.886 44.5589 242.121 43.2194 242.121 41.7882ZM218.935 13.0537H222.519V33.2009H222.628C223.207 32.3201 223.895 31.5678 224.691 30.944C225.487 30.3201 226.32 29.8063 227.189 29.4027C228.058 28.999 228.944 28.7054 229.849 28.5219C230.791 28.3384 231.678 28.2467 232.51 28.2467C234.501 28.2467 236.311 28.5953 237.94 29.2926C239.605 29.9531 241.035 30.8889 242.23 32.1C243.424 33.311 244.348 34.7422 244.999 36.3936C245.687 38.045 246.031 39.8432 246.031 41.7882C246.031 43.7332 245.687 45.5314 244.999 47.1828C244.348 48.8342 243.424 50.2655 242.23 51.4765C241.035 52.6875 239.605 53.6417 237.94 54.3389C236.311 54.9995 234.501 55.3298 232.51 55.3298C231.678 55.3298 230.791 55.238 229.849 55.0545C228.944 54.8711 228.058 54.5775 227.189 54.1738C226.32 53.7701 225.487 53.2563 224.691 52.6325C223.895 52.0086 223.207 51.2563 222.628 50.3755H222.519V54.6692H218.935V13.0537Z" fill="black"/>
<path d="M253.542 18.9988C253.542 19.7694 253.271 20.4117 252.728 20.9254C252.185 21.4025 251.587 21.641 250.936 21.641C250.284 21.641 249.687 21.4025 249.144 20.9254C248.601 20.4117 248.329 19.7694 248.329 18.9988C248.329 18.2281 248.601 17.6043 249.144 17.1272C249.687 16.6134 250.284 16.3565 250.936 16.3565C251.587 16.3565 252.185 16.6134 252.728 17.1272C253.271 17.6043 253.542 18.2281 253.542 18.9988ZM243.225 64.1923L243.388 64.2474C243.678 64.3208 244.003 64.3942 244.365 64.4676C244.691 64.541 244.999 64.5777 245.288 64.5777C246.157 64.5777 246.845 64.4125 247.352 64.0822C247.895 63.752 248.293 63.3116 248.546 62.7611C248.8 62.2473 248.963 61.6785 249.035 61.0547C249.108 60.4308 249.144 59.8069 249.144 59.1831V28.9072H252.728V59.7886C252.728 60.1556 252.71 60.7794 252.673 61.6602C252.637 62.5776 252.402 63.4951 251.967 64.4125C251.569 65.33 250.863 66.1373 249.85 66.8346C248.872 67.5318 247.442 67.8805 245.56 67.8805C244.546 67.8805 243.605 67.697 242.736 67.33L243.225 64.1923Z" fill="black"/>
<path d="M276.795 39.8065C276.795 37.3478 276.071 35.3661 274.623 33.8615C273.175 32.3201 271.148 31.5495 268.542 31.5495C267.383 31.5495 266.261 31.788 265.175 32.2651C264.089 32.7055 263.13 33.311 262.297 34.0816C261.501 34.8523 260.849 35.7331 260.342 36.7239C259.872 37.7147 259.636 38.7423 259.636 39.8065H276.795ZM259.528 42.7791C259.636 44.0635 259.944 45.2745 260.451 46.4122C260.958 47.5498 261.627 48.5407 262.46 49.3847C263.293 50.1921 264.252 50.8343 265.338 51.3113C266.424 51.7884 267.6 52.027 268.867 52.027C270.786 52.027 272.433 51.5866 273.809 50.7058C275.221 49.7884 276.288 48.7425 277.012 47.5682L279.782 49.8801C278.261 51.8251 276.578 53.2196 274.732 54.0637C272.922 54.9077 270.967 55.3298 268.867 55.3298C266.985 55.3298 265.229 54.9995 263.6 54.3389C262.008 53.6417 260.632 52.6875 259.474 51.4765C258.315 50.2655 257.392 48.8342 256.704 47.1828C256.053 45.5314 255.727 43.7332 255.727 41.7882C255.727 39.8432 256.053 38.045 256.704 36.3936C257.356 34.7422 258.261 33.311 259.419 32.1C260.578 30.8889 261.935 29.9531 263.492 29.2926C265.048 28.5953 266.732 28.2467 268.542 28.2467C270.46 28.2467 272.18 28.5953 273.7 29.2926C275.221 29.9898 276.488 30.9256 277.501 32.1C278.551 33.2376 279.347 34.5954 279.89 36.1734C280.433 37.7148 280.705 39.3662 280.705 41.1277V42.7791H259.528Z" fill="black"/>
<path d="M302.461 34.9624C301.846 34.0083 300.977 33.2009 299.855 32.5403C298.769 31.8798 297.52 31.5495 296.108 31.5495C294.624 31.5128 293.284 31.7513 292.09 32.2651C290.931 32.7789 289.936 33.4945 289.103 34.4119C288.271 35.3294 287.637 36.4303 287.203 37.7147C286.768 38.9625 286.551 40.3203 286.551 41.7882C286.551 43.2561 286.768 44.6323 287.203 45.9167C287.637 47.1645 288.271 48.2471 289.103 49.1645C289.936 50.082 290.931 50.7976 292.09 51.3113C293.284 51.8251 294.624 52.0637 296.108 52.027C297.52 52.027 298.769 51.6967 299.855 51.0361C300.977 50.3755 301.846 49.5682 302.461 48.614L305.393 50.871C304.126 52.3756 302.696 53.4949 301.103 54.2288C299.511 54.9261 297.845 55.2931 296.108 55.3298C294.044 55.3665 292.18 55.0545 290.515 54.394C288.85 53.6967 287.42 52.7426 286.225 51.5315C285.067 50.3205 284.18 48.8893 283.565 47.2379C282.949 45.5498 282.641 43.7332 282.641 41.7882C282.641 39.8432 282.949 38.045 283.565 36.3936C284.18 34.7055 285.067 33.2559 286.225 32.0449C287.42 30.8339 288.85 29.8981 290.515 29.2375C292.18 28.5403 294.044 28.21 296.108 28.2467C297.845 28.2834 299.511 28.6687 301.103 29.4027C302.696 30.0999 304.126 31.2009 305.393 32.7055L302.461 34.9624Z" fill="black"/>
<path d="M323.281 32.2101H315.95V47.403C315.95 48.3572 316.041 49.1462 316.222 49.77C316.403 50.3572 316.656 50.8159 316.982 51.1462C317.308 51.4765 317.688 51.715 318.122 51.8618C318.593 51.9719 319.1 52.027 319.643 52.027C320.258 52.027 320.892 51.9352 321.543 51.7517C322.195 51.5682 322.792 51.3297 323.335 51.0361L323.498 54.394C322.159 55.0178 320.548 55.3298 318.665 55.3298C317.978 55.3298 317.254 55.238 316.493 55.0545C315.769 54.8711 315.1 54.5224 314.484 54.0086C313.869 53.4949 313.362 52.7976 312.964 51.9169C312.566 51.0361 312.367 49.8801 312.367 48.4489V32.2101H306.991V28.9072H312.367V21.641H315.95V28.9072H323.281V32.2101Z" fill="black"/>
<path d="M331.21 18.9988C331.21 19.7694 330.939 20.4117 330.396 20.9254C329.853 21.4025 329.256 21.641 328.604 21.641C327.952 21.641 327.355 21.4025 326.812 20.9254C326.269 20.4117 325.998 19.7694 325.998 18.9988C325.998 18.2281 326.269 17.6043 326.812 17.1272C327.355 16.6134 327.952 16.3565 328.604 16.3565C329.256 16.3565 329.853 16.6134 330.396 17.1272C330.939 17.6043 331.21 18.2281 331.21 18.9988ZM330.396 54.6692H326.812V28.9072H330.396V54.6692Z" fill="black"/>
<path d="M347.513 54.6692H343.495L333.178 28.9072H337.468L345.558 50.5957H345.667L353.758 28.9072H357.83L347.513 54.6692Z" fill="black"/>
<path d="M377.944 39.8065C377.944 37.3478 377.22 35.3661 375.772 33.8615C374.324 32.3201 372.297 31.5495 369.69 31.5495C368.532 31.5495 367.41 31.788 366.324 32.2651C365.238 32.7055 364.279 33.311 363.446 34.0816C362.65 34.8523 361.998 35.7331 361.491 36.7239C361.021 37.7147 360.785 38.7423 360.785 39.8065H377.944ZM360.677 42.7791C360.785 44.0635 361.093 45.2745 361.6 46.4122C362.107 47.5498 362.776 48.5407 363.609 49.3847C364.441 50.1921 365.401 50.8343 366.487 51.3113C367.573 51.7884 368.749 52.027 370.016 52.027C371.935 52.027 373.582 51.5866 374.958 50.7058C376.369 49.7884 377.437 48.7425 378.161 47.5682L380.931 49.8801C379.41 51.8251 377.727 53.2196 375.881 54.0637C374.071 54.9077 372.116 55.3298 370.016 55.3298C368.134 55.3298 366.378 54.9995 364.749 54.3389C363.156 53.6417 361.781 52.6875 360.622 51.4765C359.464 50.2655 358.541 48.8342 357.853 47.1828C357.201 45.5314 356.876 43.7332 356.876 41.7882C356.876 39.8432 357.201 38.045 357.853 36.3936C358.505 34.7422 359.41 33.311 360.568 32.1C361.726 30.8889 363.084 29.9531 364.641 29.2926C366.197 28.5953 367.88 28.2467 369.69 28.2467C371.609 28.2467 373.329 28.5953 374.849 29.2926C376.369 29.9898 377.636 30.9256 378.65 32.1C379.7 33.2376 380.496 34.5954 381.039 36.1734C381.582 37.7148 381.854 39.3662 381.854 41.1277V42.7791H360.677Z" fill="black"/>
<path d="M385.093 62.3758H381.455L385.093 49.4398H389.492L385.093 62.3758Z" fill="black"/>
<path d="M417.274 54.6692H413.364V15.696H417.274V54.6692Z" fill="black"/>
<path d="M425.998 28.9072C426.071 29.6045 426.107 30.3018 426.107 30.999C426.143 31.6596 426.161 32.3385 426.161 33.0358H426.27C426.668 32.3385 427.175 31.6963 427.79 31.1091C428.406 30.5219 429.094 30.0265 429.854 29.6228C430.614 29.1825 431.41 28.8522 432.243 28.632C433.112 28.3751 433.962 28.2467 434.795 28.2467C438.053 28.2467 440.46 29.1274 442.017 30.8889C443.574 32.6137 444.352 35.0908 444.352 38.3203V54.6692H440.768V40.4121C440.768 37.5496 440.279 35.3661 439.302 33.8615C438.325 32.3201 436.515 31.5495 433.872 31.5495C433.691 31.5495 433.184 31.6229 432.352 31.7697C431.519 31.9165 430.632 32.3201 429.691 32.9807C428.786 33.6413 427.971 34.6321 427.247 35.9532C426.523 37.2744 426.161 39.1093 426.161 41.4579V54.6692H422.578V34.5771C422.578 33.8798 422.541 32.9991 422.469 31.9348C422.433 30.8706 422.378 29.8614 422.306 28.9072H425.998Z" fill="black"/>
<path d="M467.465 34.9624C466.85 34.0083 465.981 33.2009 464.859 32.5403C463.773 31.8798 462.524 31.5495 461.112 31.5495C459.628 31.5128 458.289 31.7513 457.094 32.2651C455.936 32.7789 454.94 33.4945 454.108 34.4119C453.275 35.3294 452.642 36.4303 452.207 37.7147C451.773 38.9625 451.556 40.3203 451.556 41.7882C451.556 43.2561 451.773 44.6323 452.207 45.9167C452.642 47.1645 453.275 48.2471 454.108 49.1645C454.94 50.082 455.936 50.7976 457.094 51.3113C458.289 51.8251 459.628 52.0637 461.112 52.027C462.524 52.027 463.773 51.6967 464.859 51.0361C465.981 50.3755 466.85 49.5682 467.465 48.614L470.398 50.871C469.131 52.3756 467.701 53.4949 466.108 54.2288C464.515 54.9261 462.85 55.2931 461.112 55.3298C459.049 55.3665 457.185 55.0545 455.519 54.394C453.854 53.6967 452.424 52.7426 451.23 51.5315C450.071 50.3205 449.184 48.8893 448.569 47.2379C447.954 45.5498 447.646 43.7332 447.646 41.7882C447.646 39.8432 447.954 38.045 448.569 36.3936C449.184 34.7055 450.071 33.2559 451.23 32.0449C452.424 30.8339 453.854 29.8981 455.519 29.2375C457.185 28.5403 459.049 28.21 461.112 28.2467C462.85 28.2834 464.515 28.6687 466.108 29.4027C467.701 30.0999 469.131 31.2009 470.398 32.7055L467.465 34.9624Z" fill="black"/>
<path d="M479 52.027C479 52.7976 478.729 53.4949 478.186 54.1187C477.643 54.7059 476.937 54.9995 476.068 54.9995C475.199 54.9995 474.493 54.7059 473.95 54.1187C473.407 53.4949 473.136 52.7976 473.136 52.027C473.136 51.2563 473.407 50.5774 473.95 49.9902C474.493 49.3664 475.199 49.0544 476.068 49.0544C476.937 49.0544 477.643 49.3664 478.186 49.9902C478.729 50.5774 479 51.2563 479 52.027Z" fill="black"/>
</svg>
